Coordinates
version=1
nRows=4
nColumns=63
inDegrees=yes

Units are S.I. units (second, meters, Newtons, ...)
If the header above contains a line with 'inDegrees', this indicates whether rotational values are in degrees (yes) or radians (no).

endheader
time	pelvis_tilt	pelvis_list	pelvis_rotation	pelvis_tx	pelvis_ty	pelvis_tz	hip_flexion_r	hip_adduction_r	hip_rotation_r	knee_angle_r	knee_angle_r_beta	ankle_angle_r	subtalar_angle_r	mtp_angle_r	hip_flexion_l	hip_adduction_l	hip_rotation_l	knee_angle_l	knee_angle_l_beta	ankle_angle_l	subtalar_angle_l	mtp_angle_l	L5_S1_Flex_Ext	L5_S1_Lat_Bending	L5_S1_axial_rotation	L4_L5_Flex_Ext	L4_L5_Lat_Bending	L4_L5_axial_rotation	L3_L4_Flex_Ext	L3_L4_Lat_Bending	L3_L4_axial_rotation	L2_L3_Flex_Ext	L2_L3_Lat_Bending	L2_L3_axial_rotation	L1_L2_Flex_Ext	L1_L2_Lat_Bending	L1_L2_axial_rotation	L1_T12_Flex_Ext	L1_T12_Lat_Bending	L1_T12_axial_rotation	Abs_r3	Abs_r2	Abs_r1	Abs_t1	Abs_t2	neck_flexion	neck_bending	neck_rotation	arm_flex_r	arm_add_r	arm_rot_r	elbow_flex_r	pro_sup_r	wrist_flex_r	wrist_dev_r	arm_flex_l	arm_add_l	arm_rot_l	elbow_flex_l	pro_sup_l	wrist_flex_l	wrist_dev_l
      2.08620690	      1.71082198	      9.31720108	     87.07357907	      0.24332073	      1.03111131	      0.09653661	     -6.61748647	      1.75424453	    -12.48549281	     24.32644450	      0.42457655	     42.81883836	     18.08584160	      0.00000000	    -12.32187464	     -6.25796009	    -22.51659757	     17.82597466	      0.31112195	     38.29869821	     16.22851711	      0.00000000	     -0.01308342	     -1.28242410	     -2.73630406	     -0.02429721	     -1.70562405	     -2.90732306	     -0.02149474	     -3.11808595	     -2.90732306	     -0.01495304	     -3.11808595	     -2.39426605	     -0.01214926	     -2.61511922	     -2.22324705	     -0.00747586	     -1.98647493	     -2.05222804	     -0.09345353	    -14.50703788	    -15.21850227	      0.00000000	      0.00000000	     19.51284028	      1.88262179	    -15.32380216	     61.29621516	    -34.63349767	     38.26642606	     68.52834826	     67.72077579	     -5.05980413	     13.96662847	     48.93606214	      9.94317600	     46.93705304	     97.18441479	      2.49906437	      1.41041956	     -0.20205421
      2.10344828	      1.88893506	      9.29800351	     86.38015319	      0.24634598	      1.03058827	      0.09783995	     -6.22006169	      1.98541474	    -11.66686450	     24.82656705	      0.43330534	     43.03077248	     18.01102088	      0.00000000	    -12.28646075	     -6.39080098	    -22.71446860	     17.95000099	      0.31328662	     38.41226542	     15.48617302	      0.00000000	      0.02913664	     -1.36107069	     -2.50138955	      0.05410966	     -1.81022402	     -2.65772639	      0.04786859	     -3.30930728	     -2.65772639	      0.03330027	     -3.30930728	     -2.18871585	      0.02705629	     -2.77549536	     -2.03237901	      0.01664868	     -2.10829850	     -1.87604216	      0.20812013	    -15.39670390	    -13.91197824	      0.00000000	      0.00000000	     21.19975302	      1.86316320	    -17.03531043	     61.44998191	    -33.64084096	     36.10533037	     67.16993943	     72.80822065	     -1.10130218	     15.78935487	     49.83500587	     10.74092044	     51.40852747	     96.45818108	      4.04734129	     -5.73788287	     -6.34011136
      2.12068966	      1.96495051	      9.16366085	     86.22886191	      0.24876370	      1.03019747	      0.09979851	     -5.65832573	      2.17529082	    -11.34727682	     25.34493259	      0.44235252	     43.16149177	     18.05024725	      0.00000000	    -11.65659780	     -6.68912729	    -22.33834844	     18.67956659	      0.32601994	     38.54939921	     14.67667437	      0.00000000	      0.05345963	     -1.44122712	     -2.40454193	      0.09927989	     -1.91683207	     -2.55482580	      0.08782883	     -3.50419963	     -2.55482580	      0.06109901	     -3.50419963	     -2.10397419	      0.04964262	     -2.93895035	     -1.95369032	      0.03054683	     -2.23246081	     -1.80340645	      0.38185681	    -16.30344946	    -13.37334086	      0.00000000	      0.00000000	     22.98265958	      2.56885251	    -18.76190765	     61.04267787	    -32.17580218	     31.38682537	     66.77287159	     81.26121282	      4.89929832	     17.31367062	     50.95073029	     11.19462371	     54.81019681	     96.53407063	      4.87474365	    -16.57544783	    -10.88989219
      2.13793103	      2.22470268	      8.92727138	     85.74971133	      0.25089497	      1.02965076	      0.10162825	     -4.98967328	      2.50065233	    -10.72508737	     25.83128997	      0.45084106	     43.22620096	     18.04796220	      0.00000000	    -10.99079126	     -7.05719663	    -22.15293314	     19.42031688	      0.33894847	     38.70712854	     13.64433207	      0.00000000	      0.08177199	     -1.47067488	     -2.28371884	      0.15185876	     -1.95599759	     -2.42645127	      0.13434320	     -3.57579891	     -2.42645127	      0.09345720	     -3.57579891	     -1.99825398	      0.07593347	     -2.99900022	     -1.85552156	      0.04672451	     -2.27807539	     -1.71278913	      0.58408912	    -16.63656841	    -12.70135906	      0.00000000	      0.00000000	     24.42358873	      3.24706046	    -20.08451907	     61.22399378	    -31.33845793	     27.65931322	     67.34176868	     84.72032364	      9.56716015	     17.94961055	     52.14514370	     11.57951125	     57.15605770	     96.71967890	      7.07738141	    -26.71185383	    -15.27153535
